#Comment line ignore any data following # character 
#Hierarchical Translation and Rotation (.htr) file 
[Header]	
#Header keywords are followed by a single value 
FileType HTR		#Single word string
DataType HTRS		#Translation followed by rotation and scale data
FileVersion 1		#integer
NumSegments 84		#integer
NumFrames 2		#integer
DataFrameRate 30		#integer, data frame rate in this file
EulerRotationOrder ZYX
CalibrationUnits mm
RotationUnits Degrees
GlobalAxisofGravity Y
BoneLengthAxis Y
ScaleFactor 1.00
[SegmentNames&Hierarchy]
#CHILD	PARENT
MASTER GLOBAL
root MASTER
chest root
L_mid_tent01 root
R_mid_tent01 root
spine01 root
Bip01_Neck chest
L_humerus chest
R_humerus chest
weapon_bone chest
Bip01_Head Bip01_Neck
eye_left_bone Bip01_Head
eye_right_bone Bip01_Head
L_forearm L_humerus
L_front_hand L_forearm
L_weapon_bone L_forearm
L_front_hand01_01 L_front_hand
L_front_hand02_01 L_front_hand
L_front_hand03_01 L_front_hand
L_front_hand01_02 L_front_hand01_01
L_front_hand02_02 L_front_hand02_01
L_front_hand03_02 L_front_hand03_01
R_forearm R_humerus
R_front_hand R_forearm
R_weapon_bone R_forearm
R_front_hand01_01 R_front_hand
R_front_hand02_01 R_front_hand
R_front_hand03_01 R_front_hand
R_front_hand01_02 R_front_hand01_01
R_front_hand02_02 R_front_hand02_01
R_front_hand03_02 R_front_hand03_01
null_rope01_connect L_mid_tent01
Rope1_Seg01 null_rope01_connect
Rope1_Seg02 Rope1_Seg01
Rope1_Seg03 Rope1_Seg02
Rope1_Seg04 Rope1_Seg03
Rope1_Seg05 Rope1_Seg04
Rope1_Seg06 Rope1_Seg05
Rope1_Seg07 Rope1_Seg06
Rope1_Seg09 Rope1_Seg07
L_mid_hand01 Rope1_Seg09
L_mid_hand02 Rope1_Seg09
L_mid_hand03 Rope1_Seg09
null_rope02_connect R_mid_tent01
Rope2_Seg01 null_rope02_connect
Rope2_Seg02 Rope2_Seg01
Rope2_Seg03 Rope2_Seg02
Rope2_Seg04 Rope2_Seg03
Rope2_Seg05 Rope2_Seg04
Rope2_Seg06 Rope2_Seg05
Rope2_Seg07 Rope2_Seg06
Rope2_Seg09 Rope2_Seg07
R_mid_hand01 Rope2_Seg09
R_mid_hand02 Rope2_Seg09
R_mid_hand03 Rope2_Seg09
spine02 spine01
spine03 spine02
pelvis spine03
null_rope03_connect pelvis
null_rope04_connect pelvis
Rope3_Seg01 null_rope03_connect
Rope3_Seg02 Rope3_Seg01
Rope3_Seg03 Rope3_Seg02
Rope3_Seg04 Rope3_Seg03
Rope3_Seg05 Rope3_Seg04
Rope3_Seg06 Rope3_Seg05
Rope3_Seg07 Rope3_Seg06
Rope3_Seg08 Rope3_Seg07
Rope3_Seg09 Rope3_Seg08
R_rear_hand01 Rope3_Seg09
R_rear_hand02 Rope3_Seg09
R_rear_hand03 Rope3_Seg09
Rope4_Seg01 null_rope04_connect
Rope4_Seg02 Rope4_Seg01
Rope4_Seg03 Rope4_Seg02
Rope4_Seg04 Rope4_Seg03
Rope4_Seg05 Rope4_Seg04
Rope4_Seg06 Rope4_Seg05
Rope4_Seg07 Rope4_Seg06
Rope4_Seg08 Rope4_Seg07
Rope4_Seg09 Rope4_Seg08
L_rear_hand01 Rope4_Seg09
L_rear_hand02 Rope4_Seg09
L_rear_hand03 Rope4_Seg09
[BasePosition]
#SegmentName Tx, Ty, Tz, Rx, Ry, Rz, BoneLength
MASTER 0.000000 0.000000 0.000000 -90.000000 0.000000 0.000000 10.000000 
root 0.000000 0.000000 0.000000 0.000000 0.000000 0.000000 10.000000 
chest 0.000000 0.000000 0.000000 0.000000 0.000000 0.000000 10.000000 
L_mid_tent01 0.000000 0.000000 0.000000 0.000000 0.000000 0.000000 10.000000 
R_mid_tent01 0.000000 0.000000 0.000000 0.000000 0.000000 0.000000 10.000000 
spine01 0.000000 0.000000 0.000000 0.000000 0.000000 0.000000 10.000000 
Bip01_Neck 0.000000 0.000000 0.000000 0.000000 0.000000 0.000000 10.000000 
L_humerus 0.000000 0.000000 0.000000 0.000000 0.000000 0.000000 10.000000 
R_humerus 0.000000 0.000000 0.000000 0.000000 0.000000 0.000000 10.000000 
weapon_bone 0.000000 0.000000 0.000000 0.000000 0.000000 0.000000 10.000000 
Bip01_Head 0.000000 0.000000 0.000000 0.000000 0.000000 0.000000 10.000000 
eye_left_bone 0.000000 0.000000 0.000000 0.000000 0.000000 0.000000 10.000000 
eye_right_bone 0.000000 0.000000 0.000000 0.000000 0.000000 0.000000 10.000000 
L_forearm 0.000000 0.000000 0.000000 0.000000 0.000000 0.000000 10.000000 
L_front_hand 0.000000 0.000000 0.000000 0.000000 0.000000 0.000000 10.000000 
L_weapon_bone 0.000000 0.000000 0.000000 0.000000 0.000000 0.000000 10.000000 
L_front_hand01_01 0.000000 0.000000 0.000000 0.000000 0.000000 0.000000 10.000000 
L_front_hand02_01 0.000000 0.000000 0.000000 0.000000 0.000000 0.000000 10.000000 
L_front_hand03_01 0.000000 0.000000 0.000000 0.000000 0.000000 0.000000 10.000000 
L_front_hand01_02 0.000000 0.000000 0.000000 0.000000 0.000000 0.000000 10.000000 
L_front_hand02_02 0.000000 0.000000 0.000000 0.000000 0.000000 0.000000 10.000000 
L_front_hand03_02 0.000000 0.000000 0.000000 0.000000 0.000000 0.000000 10.000000 
R_forearm 0.000000 0.000000 0.000000 0.000000 0.000000 0.000000 10.000000 
R_front_hand 0.000000 0.000000 0.000000 0.000000 0.000000 0.000000 10.000000 
R_weapon_bone 0.000000 0.000000 0.000000 0.000000 0.000000 0.000000 10.000000 
R_front_hand01_01 0.000000 0.000000 0.000000 0.000000 0.000000 0.000000 10.000000 
R_front_hand02_01 0.000000 0.000000 0.000000 0.000000 0.000000 0.000000 10.000000 
R_front_hand03_01 0.000000 0.000000 0.000000 0.000000 0.000000 0.000000 10.000000 
R_front_hand01_02 0.000000 0.000000 0.000000 0.000000 0.000000 0.000000 10.000000 
R_front_hand02_02 0.000000 0.000000 0.000000 0.000000 0.000000 0.000000 10.000000 
R_front_hand03_02 0.000000 0.000000 0.000000 0.000000 0.000000 0.000000 10.000000 
null_rope01_connect 0.000000 0.000000 0.000000 0.000000 0.000000 0.000000 10.000000 
Rope1_Seg01 0.000000 0.000000 0.000000 0.000000 0.000000 0.000000 10.000000 
Rope1_Seg02 0.000000 0.000000 0.000000 0.000000 0.000000 0.000000 10.000000 
Rope1_Seg03 0.000000 0.000000 0.000000 0.000000 0.000000 0.000000 10.000000 
Rope1_Seg04 0.000000 0.000000 0.000000 0.000000 0.000000 0.000000 10.000000 
Rope1_Seg05 0.000000 0.000000 0.000000 0.000000 0.000000 0.000000 10.000000 
Rope1_Seg06 0.000000 0.000000 0.000000 0.000000 0.000000 0.000000 10.000000 
Rope1_Seg07 0.000000 0.000000 0.000000 0.000000 0.000000 0.000000 10.000000 
Rope1_Seg09 0.000000 0.000000 0.000000 0.000000 0.000000 0.000000 10.000000 
L_mid_hand01 0.000000 0.000000 0.000000 0.000000 0.000000 0.000000 10.000000 
L_mid_hand02 0.000000 0.000000 0.000000 0.000000 0.000000 0.000000 10.000000 
L_mid_hand03 0.000000 0.000000 0.000000 0.000000 0.000000 0.000000 10.000000 
null_rope02_connect 0.000000 0.000000 0.000000 0.000000 0.000000 0.000000 10.000000 
Rope2_Seg01 0.000000 0.000000 0.000000 0.000000 0.000000 0.000000 10.000000 
Rope2_Seg02 0.000000 0.000000 0.000000 0.000000 0.000000 0.000000 10.000000 
Rope2_Seg03 0.000000 0.000000 0.000000 0.000000 0.000000 0.000000 10.000000 
Rope2_Seg04 0.000000 0.000000 0.000000 0.000000 0.000000 0.000000 10.000000 
Rope2_Seg05 0.000000 0.000000 0.000000 0.000000 0.000000 0.000000 10.000000 
Rope2_Seg06 0.000000 0.000000 0.000000 0.000000 0.000000 0.000000 10.000000 
Rope2_Seg07 0.000000 0.000000 0.000000 0.000000 0.000000 0.000000 10.000000 
Rope2_Seg09 0.000000 0.000000 0.000000 0.000000 0.000000 0.000000 10.000000 
R_mid_hand01 0.000000 0.000000 0.000000 0.000000 0.000000 0.000000 10.000000 
R_mid_hand02 0.000000 0.000000 0.000000 0.000000 0.000000 0.000000 10.000000 
R_mid_hand03 0.000000 0.000000 0.000000 0.000000 0.000000 0.000000 10.000000 
spine02 0.000000 0.000000 0.000000 0.000000 0.000000 0.000000 10.000000 
spine03 0.000000 0.000000 0.000000 0.000000 0.000000 0.000000 10.000000 
pelvis 0.000000 0.000000 0.000000 0.000000 0.000000 0.000000 10.000000 
null_rope03_connect 0.000000 0.000000 0.000000 0.000000 0.000000 0.000000 10.000000 
null_rope04_connect 0.000000 0.000000 0.000000 0.000000 0.000000 0.000000 10.000000 
Rope3_Seg01 0.000000 0.000000 0.000000 0.000000 0.000000 0.000000 10.000000 
Rope3_Seg02 0.000000 0.000000 0.000000 0.000000 0.000000 0.000000 10.000000 
Rope3_Seg03 0.000000 0.000000 0.000000 0.000000 0.000000 0.000000 10.000000 
Rope3_Seg04 0.000000 0.000000 0.000000 0.000000 0.000000 0.000000 10.000000 
Rope3_Seg05 0.000000 0.000000 0.000000 0.000000 0.000000 0.000000 10.000000 
Rope3_Seg06 0.000000 0.000000 0.000000 0.000000 0.000000 0.000000 10.000000 
Rope3_Seg07 0.000000 0.000000 0.000000 0.000000 0.000000 0.000000 10.000000 
Rope3_Seg08 0.000000 0.000000 0.000000 0.000000 0.000000 0.000000 10.000000 
Rope3_Seg09 0.000000 0.000000 0.000000 0.000000 0.000000 0.000000 10.000000 
R_rear_hand01 0.000000 0.000000 0.000000 0.000000 0.000000 0.000000 10.000000 
R_rear_hand02 0.000000 0.000000 0.000000 0.000000 0.000000 0.000000 10.000000 
R_rear_hand03 0.000000 0.000000 0.000000 0.000000 0.000000 0.000000 10.000000 
Rope4_Seg01 0.000000 0.000000 0.000000 0.000000 0.000000 0.000000 10.000000 
Rope4_Seg02 0.000000 0.000000 0.000000 0.000000 0.000000 0.000000 10.000000 
Rope4_Seg03 0.000000 0.000000 0.000000 0.000000 0.000000 0.000000 10.000000 
Rope4_Seg04 0.000000 0.000000 0.000000 0.000000 0.000000 0.000000 10.000000 
Rope4_Seg05 0.000000 0.000000 0.000000 0.000000 0.000000 0.000000 10.000000 
Rope4_Seg06 0.000000 0.000000 0.000000 0.000000 0.000000 0.000000 10.000000 
Rope4_Seg07 0.000000 0.000000 0.000000 0.000000 0.000000 0.000000 10.000000 
Rope4_Seg08 0.000000 0.000000 0.000000 0.000000 0.000000 0.000000 10.000000 
Rope4_Seg09 0.000000 0.000000 0.000000 0.000000 0.000000 0.000000 10.000000 
L_rear_hand01 0.000000 0.000000 0.000000 0.000000 0.000000 0.000000 10.000000 
L_rear_hand02 0.000000 0.000000 0.000000 0.000000 0.000000 0.000000 10.000000 
L_rear_hand03 0.000000 0.000000 0.000000 0.000000 0.000000 0.000000 10.000000 
#Beginning of Data. Separated by tabs
#Fr	Tx	Ty	Tz	Rx	Ry	Rz	SF
[MASTER]
22 1693.535522 -4164.764648 0.000000 0.000448 -0.002304 -112.016922 4495.923340
23 1729.549316 -4379.104492 0.000000 0.000471 -0.002299 -113.158379 4708.279785
[root]
22 -62.822273 82.196480 1066.306396 -89.256287 -7.322128 179.791214 1071.313232
23 -62.822037 87.740639 1077.493164 -89.578239 -6.295462 179.602036 1082.883423
[chest]
22 -84.512650 -34.090519 0.000000 -5.097633 2.284785 155.990692 91.129311
23 -84.512650 -34.090519 0.000000 -4.406409 1.851743 156.063690 91.129311
[L_mid_tent01]
22 23.228750 24.509907 -223.761200 -6.399195 21.245455 0.554105 226.294907
23 23.228750 24.509907 -223.761200 -6.658278 19.221697 2.144283 226.294907
[R_mid_tent01]
22 23.228794 24.509907 226.238495 -162.575378 -10.443913 1.929189 228.744751
23 23.228794 24.509907 226.238495 -161.979462 -8.511907 3.270087 228.744751
[spine01]
22 -0.361383 -0.195265 0.000000 0.001815 0.001488 11.320962 0.410763
23 -0.361383 -0.195265 0.000000 0.001815 0.001488 11.320962 0.410763
[Bip01_Neck]
22 165.484543 71.581718 0.000119 175.896118 1.177290 24.871183 180.302734
23 165.484543 71.581718 0.000119 175.896118 1.177290 24.871183 180.302734
[L_humerus]
22 -13.983130 -135.272980 -120.471481 151.180069 56.907433 -113.696693 181.680161
23 -13.983130 -135.272980 -120.471481 147.296097 62.124294 -116.595726 181.680161
[R_humerus]
22 -13.983309 -135.273102 125.287651 -162.313614 -49.567764 -102.553947 184.909012
23 -13.983309 -135.273102 125.287651 -161.494171 -55.272854 -102.794968 184.909012
[weapon_bone]
22 235.964890 -300.705902 0.000000 0.000000 -89.951546 -128.212341 382.234833
23 235.964890 -300.705902 0.000000 0.000000 -89.951546 -128.212341 382.234833
[Bip01_Head]
22 201.313751 211.516769 15.929725 -11.718646 3.765908 -65.971977 292.438599
23 201.313751 211.516769 15.929725 -10.917811 3.663073 -65.463173 292.438599
[eye_left_bone]
22 -24.626970 125.451866 -64.772606 0.000000 -90.000000 -99.840431 143.318359
23 -24.626970 125.451866 -64.772606 0.000000 -90.000000 -99.840431 143.318359
[eye_right_bone]
22 -24.626970 125.451866 64.327362 0.000000 -89.965736 80.156380 143.117676
23 -24.626970 125.451866 64.327362 0.000000 -89.965736 80.156380 143.117676
[L_forearm]
22 322.776093 0.000000 -0.000119 0.000357 -0.002320 -107.506004 322.776093
23 322.776093 0.000000 -0.000119 0.000357 -0.002320 -107.506004 322.776093
[L_front_hand]
22 241.149185 -0.042021 -3.300071 -179.431961 -2.195943 -5.942918 241.171753
23 241.149185 -0.042021 -3.300071 -179.431961 -2.195943 -5.942917 241.171753
[L_weapon_bone]
22 156.183838 0.000000 0.000000 0.000014 0.000007 0.000001 156.183838
23 156.183838 0.000000 0.000000 0.000014 0.000007 0.000001 156.183838
[L_front_hand01_01]
22 86.095154 20.947098 -0.655860 0.139491 -0.584553 24.181791 88.609184
23 86.095154 20.947098 -0.655860 0.139491 -0.584553 24.181791 88.609184
[L_front_hand02_01]
22 86.935165 -11.437475 24.513514 119.190460 -21.905655 -12.119137 91.046425
23 86.935165 -11.437475 24.513514 119.190460 -21.905655 -12.119137 91.046425
[L_front_hand03_01]
22 86.637497 -14.123976 -20.424902 -120.437630 20.554029 -14.327168 90.126129
23 86.637497 -14.123976 -20.424902 -120.437630 20.554031 -14.327168 90.126129
[L_front_hand01_02]
22 71.020905 -0.000179 0.000030 0.000334 -0.002323 -106.379684 71.020905
23 71.020905 -0.000179 0.000030 0.000334 -0.002323 -106.379684 71.020905
[L_front_hand02_02]
22 71.020927 -0.000119 0.000060 0.000334 -0.002323 -106.379684 71.020927
23 71.020927 -0.000119 0.000060 0.000334 -0.002323 -106.379684 71.020927
[L_front_hand03_02]
22 71.020905 -0.000060 0.000060 0.000334 -0.002323 -106.379684 71.020905
23 71.020905 -0.000060 0.000060 0.000334 -0.002323 -106.379684 71.020905
[R_forearm]
22 322.776428 -0.000060 0.000030 0.196737 0.083011 -114.368637 322.776428
23 322.776428 -0.000060 0.000030 0.196737 0.083011 -114.368637 322.776428
[R_front_hand]
22 238.847015 -0.006795 2.210259 -0.341870 1.692705 -0.151779 238.857239
23 238.847015 -0.006795 2.210259 -0.341870 1.692705 -0.151779 238.857239
[R_weapon_bone]
22 155.664093 0.002503 -0.000030 0.003487 0.001180 -90.988930 155.664078
23 155.664093 0.002503 -0.000030 0.003487 0.001180 -90.988930 155.664078
[R_front_hand01_01]
22 87.624611 14.231146 22.918642 -119.218056 -22.033409 12.303375 91.683487
23 87.624611 14.231146 22.918642 -119.218056 -22.033411 12.303375 91.683487
[R_front_hand02_01]
22 89.356956 14.367283 -19.491137 120.545532 20.947184 14.823009 92.579636
23 89.356956 14.367283 -19.491137 120.545532 20.947184 14.823009 92.579636
[R_front_hand03_01]
22 87.286232 -22.307278 -0.143439 -0.231628 -0.392922 -24.567768 90.091743
23 87.286232 -22.307278 -0.143439 -0.231628 -0.392922 -24.567768 90.091743
[R_front_hand01_02]
22 71.020905 0.000060 0.000119 0.002323 -0.000334 106.381714 71.020905
23 71.020905 0.000060 0.000119 0.002323 -0.000334 106.381714 71.020905
[R_front_hand02_02]
22 71.020844 -0.000030 -0.000119 0.002323 -0.000334 106.381714 71.020836
23 71.020844 -0.000030 -0.000119 0.002323 -0.000334 106.381714 71.020836
[R_front_hand03_02]
22 71.020905 0.000000 0.000030 0.002323 -0.000334 106.381714 71.020905
23 71.020905 0.000000 0.000030 0.002323 -0.000334 106.381714 71.020905
[null_rope01_connect]
22 328.732483 0.000000 -0.000238 94.641640 45.974182 9.386439 328.732483
23 328.732483 0.000000 -0.000238 97.126816 46.647118 8.989571 328.732483
[Rope1_Seg01]
22 0.000113 0.000000 -0.000023 79.477043 -35.790882 28.240614 0.000115
23 0.000117 0.000000 -0.000020 93.955254 -32.922394 10.822475 0.000119
[Rope1_Seg02]
22 139.999863 -0.000179 0.000000 -1.474526 3.549737 1.227752 139.999863
23 139.999863 -0.000179 0.000000 -1.027227 3.619370 1.265697 139.999863
[Rope1_Seg03]
22 139.999924 0.000060 -0.000060 -2.755330 6.071404 2.288138 139.999924
23 139.999924 0.000060 -0.000060 -1.901876 6.022768 2.234715 139.999924
[Rope1_Seg04]
22 139.999924 -0.000060 -0.000119 -7.438017 13.779588 13.099113 139.999924
23 139.999924 -0.000060 -0.000119 -4.355966 11.569502 7.391214 139.999924
[Rope1_Seg05]
22 139.999832 0.000119 -0.000060 -18.978033 35.483917 7.242020 139.999832
23 139.999832 0.000119 -0.000060 -10.023594 29.672882 18.799286 139.999832
[Rope1_Seg06]
22 139.999954 0.000119 -0.000060 -26.413933 28.017963 -15.898458 139.999954
23 139.999954 0.000119 -0.000060 -27.510569 44.741962 4.577802 139.999954
[Rope1_Seg07]
22 139.999985 0.000060 0.000000 -20.490755 8.913481 1.845862 139.999985
23 139.999985 0.000060 0.000000 -13.715067 12.728245 9.971130 139.999985
[Rope1_Seg09]
22 121.602913 0.000119 -0.000089 -89.793175 -1.359789 0.847147 121.602913
23 121.602913 0.000119 -0.000089 -89.793175 -1.359789 0.847147 121.602913
[L_mid_hand01]
22 103.859421 1.038730 8.195221 106.855484 -31.239275 -9.461397 104.187431
23 103.859421 1.038730 8.195221 106.855484 -31.239275 -9.461397 104.187431
[L_mid_hand02]
22 105.572853 -4.139662 -10.864139 -142.331345 25.752670 -28.774628 106.211075
23 105.572853 -4.139662 -10.864139 -142.331345 25.752670 -28.774628 106.211075
[L_mid_hand03]
22 104.641464 17.579376 -3.913581 -16.122810 9.734291 34.223598 106.179977
23 104.641464 17.579376 -3.913581 -16.122810 9.734291 34.223598 106.179977
[null_rope02_connect]
22 328.732849 0.000179 -0.000119 -150.459991 -70.252869 53.257771 328.732849
23 328.732849 0.000179 -0.000119 -143.227478 -67.360901 47.794453 328.732849
[Rope2_Seg01]
22 -0.000138 -0.000046 -0.000046 -63.755268 -21.062956 -76.330368 0.000153
23 -0.000140 -0.000041 -0.000041 -65.992401 -21.596676 -72.466125 0.000151
[Rope2_Seg02]
22 139.999741 -0.000060 -0.000119 -2.851123 -0.418524 -1.773950 139.999756
23 139.999741 -0.000060 -0.000119 -2.737928 -0.467463 -1.411983 139.999756
[Rope2_Seg03]
22 140.000107 0.000030 0.000000 -4.876562 -0.590488 -3.206120 140.000107
23 140.000107 0.000030 0.000000 -4.659256 -0.699108 -2.499482 140.000107
[Rope2_Seg04]
22 139.999802 0.000000 -0.000060 -11.698182 -0.873371 -8.961802 139.999802
23 139.999802 0.000000 -0.000060 -10.965602 -1.266977 -6.573383 139.999802
[Rope2_Seg05]
22 139.999985 -0.000060 0.000119 -33.424892 9.920771 -100.010742 139.999985
23 139.999985 -0.000060 0.000119 -34.921741 2.462500 -107.823746 139.999985
[Rope2_Seg06]
22 139.999893 -0.000030 -0.000119 18.223711 13.633719 -31.128519 139.999893
23 139.999893 -0.000030 -0.000119 17.092510 15.145458 -29.322222 139.999893
[Rope2_Seg07]
22 139.999893 0.000060 -0.000060 5.226330 -8.875755 -1.839337 139.999893
23 139.999893 0.000060 -0.000060 0.237526 -6.030903 2.292254 139.999893
[Rope2_Seg09]
22 121.338966 0.000089 -0.000060 33.793236 -1.359788 -0.847141 121.338966
23 121.338966 0.000089 -0.000060 33.793236 -1.359788 -0.847141 121.338966
[R_mid_hand01]
22 104.680779 11.144459 -10.335981 -41.523792 25.424656 28.595957 105.778534
23 104.680779 11.144459 -10.335981 -41.523792 25.424656 28.595957 105.778534
[R_mid_hand02]
22 104.070427 2.443552 8.231699 72.847389 -32.746803 10.013901 104.424065
23 104.070427 2.443552 8.231699 72.847389 -32.746803 10.013901 104.424065
[R_mid_hand03]
22 106.028137 -11.221827 -5.996406 -167.901306 10.259192 -37.009720 106.788818
23 106.028137 -11.221827 -5.996406 -167.901306 10.259192 -37.009720 106.788818
[spine02]
22 129.756927 0.001550 0.000119 0.001147 -1.797837 -7.854275 129.756927
23 129.756927 0.001550 0.000119 0.001147 -1.797837 -7.854275 129.756927
[spine03]
22 79.115631 0.000000 -0.000119 1.459971 -2.848092 23.765959 79.115631
23 79.115631 0.000000 -0.000119 1.459971 -2.848092 23.765965 79.115631
[pelvis]
22 169.435242 0.051022 0.000000 -0.000005 0.000003 -4.322055 169.435257
23 169.435242 0.051022 0.000000 -0.000005 0.000003 -4.322055 169.435257
[null_rope03_connect]
22 -1.257226 -2.466202 137.391083 80.431099 71.707275 -24.623287 137.418976
23 -1.257226 -2.466202 137.391083 81.825523 70.346207 -24.280502 137.418976
[null_rope04_connect]
22 -1.259640 -2.480268 -137.844437 80.431099 71.707275 -24.623287 137.872513
23 -1.259640 -2.480268 -137.844437 81.825523 70.346207 -24.280502 137.872513
[Rope3_Seg01]
22 0.000113 0.000000 -0.000023 -131.082809 -6.722240 105.788513 0.000115
23 0.000117 0.000000 -0.000020 -130.081696 -7.116605 97.031525 0.000119
[Rope3_Seg02]
22 139.999924 -0.000119 0.000060 0.117192 2.101306 3.061116 139.999924
23 139.999924 -0.000119 0.000060 0.044452 0.732941 2.049598 139.999924
[Rope3_Seg03]
22 139.999924 -0.000119 0.000119 0.157296 2.752848 4.003511 139.999924
23 139.999924 -0.000119 0.000119 0.011517 0.901738 2.509480 139.999924
[Rope3_Seg04]
22 139.999924 0.000119 0.000000 0.183022 3.726869 5.418118 139.999924
23 139.999924 0.000119 0.000000 -0.117698 1.063651 3.131693 139.999924
[Rope3_Seg05]
22 139.999924 -0.000238 0.000060 0.321295 4.938834 8.890353 139.999924
23 139.999924 -0.000238 0.000060 -0.431799 -0.752236 3.467074 139.999924
[Rope3_Seg06]
22 139.999893 -0.000119 -0.000060 1.321071 7.483582 10.780026 139.999893
23 139.999893 -0.000119 -0.000060 0.290479 2.874060 5.978018 139.999893
[Rope3_Seg07]
22 139.999771 0.000060 -0.000119 3.976223 8.372574 6.051051 139.999771
23 139.999771 0.000060 -0.000119 3.199563 10.113713 8.661608 139.999771
[Rope3_Seg08]
22 139.999985 -0.000060 0.000000 4.161342 6.019252 3.149744 139.999985
23 139.999985 -0.000060 0.000000 3.684787 8.183826 6.216136 139.999985
[Rope3_Seg09]
22 90.185997 -0.000179 -0.000060 89.793228 -1.359877 -0.847183 90.185997
23 90.185997 -0.000179 -0.000060 89.793228 -1.359877 -0.847183 90.185997
[R_rear_hand01]
22 103.366196 -6.073594 -10.757982 -161.551193 16.666374 -30.088671 104.101845
23 103.366196 -6.073594 -10.757982 -161.551193 16.666374 -30.088671 104.101845
[R_rear_hand02]
22 100.509819 12.039542 -7.992327 -34.280552 19.289745 28.875523 101.543350
23 100.509819 12.039542 -7.992327 -34.280552 19.289745 28.875523 101.543350
[R_rear_hand03]
22 101.539970 5.215704 5.435467 83.366440 -30.933914 7.284830 101.819031
23 101.539970 5.215704 5.435467 83.366440 -30.933914 7.284830 101.819031
[Rope4_Seg01]
22 0.000012 -0.000404 -0.000153 35.911163 -9.836053 116.824173 0.000432
23 0.000012 -0.000427 -0.000153 43.245239 -8.521704 96.914146 0.000454
[Rope4_Seg02]
22 139.999985 0.000060 0.000119 6.653257 -4.708477 -16.074373 139.999985
23 139.999985 0.000060 0.000119 2.103567 0.508384 -9.462498 139.999985
[Rope4_Seg03]
22 139.999924 0.000000 -0.000238 3.209510 -5.316878 -13.206811 139.999924
23 139.999924 0.000000 -0.000238 0.961758 0.787080 -5.092671 139.999924
[Rope4_Seg04]
22 139.999985 0.000000 0.000119 1.139325 -3.272239 -9.730492 139.999985
23 139.999985 0.000000 0.000119 0.538718 2.172530 -1.942106 139.999985
[Rope4_Seg05]
22 139.999802 -0.000060 -0.000119 0.238678 -3.086556 -5.850276 139.999802
23 139.999802 -0.000060 -0.000119 0.503621 -1.172055 -3.119838 139.999802
[Rope4_Seg06]
22 139.999924 0.000000 0.000060 0.053213 -4.402891 -4.946312 139.999924
23 139.999924 0.000000 0.000060 0.613386 -4.708051 -5.713360 139.999924
[Rope4_Seg07]
22 139.999802 0.000000 0.000000 -0.024498 -6.867623 -5.925209 139.999802
23 139.999802 0.000000 0.000000 0.557608 -9.043808 -9.713333 139.999802
[Rope4_Seg08]
22 139.999924 0.000000 0.000119 -2.129940 -5.137012 -5.178013 139.999924
23 139.999924 0.000000 0.000119 -2.056832 -5.965643 -7.053170 139.999924
[Rope4_Seg09]
22 90.185791 0.000060 0.000060 -135.617828 2.228885 0.850567 90.185791
23 90.185791 0.000060 0.000060 -135.617828 2.228885 0.850567 90.185791
[L_rear_hand01]
22 101.696655 -8.392275 -7.654577 -34.454281 -18.946800 151.655121 102.329041
23 101.696655 -8.392275 -7.654577 -34.454281 -18.946800 151.655121 102.329041
[L_rear_hand02]
22 102.726799 -1.568258 5.773216 83.407906 30.330435 172.796509 102.900848
23 102.726799 -1.568258 5.773216 83.407906 30.330435 172.796509 102.900848
[L_rear_hand03]
22 104.552910 9.721220 -10.420293 -161.379868 -16.473232 -150.512238 105.519653
23 104.552910 9.721220 -10.420293 -161.379868 -16.473232 -150.512238 105.519653
